**ABCDEFGHIJKLMNOPQRSTUVWXYZabcdefghijklmnopqrstuvwxyz**************************
**PARASOLID !"#$%&'()*+,-./:;<=>?@[\]^_`{|}~0123456789**************************
**PART1;
MC=AMD64;
MC_MODEL=Intel64 Family 6 Model 165 Stepping 2, GenuineIntel;
MC_ID=unknown;
OS=Windows_NT;
OS_RELEASE=unknown;
FRU=Parasolid Version 31.1, build 278,  7-15-2019;
APPL=SOLIDWORKS 2020-2019269;
SITE=;
USER=unknown;
FORMAT=text;
GUISE=transmit;
KEY=Guci;
FILE=Guci.x_t;
DATE=Sun Jun 30 15:56:14 2024;
**PART2;
SCH=SCH_3101278_31100;
USFLD_SIZE=0;
**PART3;
**END_OF_HEADER*****************************************************************
T51 : TRANSMIT FILE created by modeller version 310127823 SCH_3101278_31100_1300
6222 0 12 34 CCCCCCI4 mesh1006 0 I8 polyline1008 0 CCCCCCCDI5 owner1040 0 CCCCCC
I13 boundary_mesh1006 0 I17 boundary_polyline1008 0 CCCA16 index_map_offset0 0 1
 dA9 index_map82 0 A17 node_id_index_map82 0 A20 schema_embedding_map82 0 A5 chi
ld12 0 A14 lowest_node_id0 0 1 dA16 mesh_offset_data206 0 Z1 315 2 3 0 0 0 0 0 0
 1e3 1e-8 0 4 0 1 0 1 1 5 6 7 8 0 0 9 10 11 0 0 0 0 0 0 0 81 255 2 2 304 12 1 13
 0 0 0 0 14 70 11 CI9 list_type0 0 1 uI10 notransmit0 0 1 lCCCDCCDI12 finger_ind
ex0 0 1 dI12 finger_block1012 0 CZ3 0 4 T1 0 0 7 20 1 15 15 13 255 5 97 0 1 0 16
 0 0 17 0 50 255 6 175 0 16 18 0 0 +433680868994202e-33 0 0 1 0 0 0 0 -1 31 255
 7 185 0 10 19 0 0 +867361737988404e-33 0 0 1 0 0 0 0 -1 .025 29 255 8 89 0 11 0
 0 -.22425 0 1092997268239012e-32 19 8 CCCCCCCA5 owner12 0 Z9 101 0 1 17 0 20 V0
 16 255 10 156 0 ?21 0 22 7 0 0 1 18 255 11 87 0 23 0 0 8 ?1 17 255 23 0 24 23 2
3 11 0 0 0 0 ?15 255 24 230 0 23 25 26 14 255 25 114 27 ?0 28 24 5 29 +0 0 0 28
 20 15 26 113 0 30 25 0 17 30 0 26 30 30 0 31 32 0 0 -17 31 0 33 31 31 0 30 32 0
 0 +16 32 111 0 ?31 34 0 35 0 0 1 16 34 116 0 ?36 37 32 38 0 0 1 31 35 176 0 32
 0 38 0 +-.228199574927622 0 0 1 0 0 0 0 -1 .03 31 38 177 0 34 35 39 0 +-.224749
744387587 0 0 1 0 0 0 0 -1 .0387346881708919 31 39 178 0 37 38 40 0 +-.222889574
1557125 0 0 1 0 0 0 0 -1 .04 16 37 121 0 ?41 42 34 39 0 0 1 31 40 179 0 42 39 43
 0 +-.219516640373361 0 0 1 0 0 0 0 -1 .04 16 42 126 0 ?44 45 37 40 0 0 1 31 43
 180 0 45 40 46 0 +-.2151032387872845 0 0 1 0 0 0 0 -1 .04265013054830285 16 45
 131 0 ?47 48 42 43 0 0 1 31 46 181 0 48 43 49 0 +-.0525105524297792 0 0 1 0 0 0
 0 -1 .03782926829268295 16 48 136 0 ?50 51 45 46 0 0 1 31 49 182 0 51 46 52 0 +
-.03251311059457415 0 0 1 0 0 0 0 -1 .025 16 51 141 0 ?53 54 48 49 0 0 1 31 52 1
83 0 54 49 19 0 +-.01241619848709566 0 0 1 0 0 0 0 -1 .025 16 54 146 0 ?55 22 51
 52 0 0 1 31 19 184 0 22 52 7 0 +-.00963512405443479 0 0 1 0 0 0 0 -1 .026875 16
 22 151 0 ?56 10 54 19 0 0 1 17 56 0 57 56 56 0 58 22 0 0 +15 57 239 0 56 59 60
 17 58 0 61 58 58 0 56 22 0 0 -15 61 153 0 58 62 0 14 62 154 63 ?64 59 65 5 66 +
0 0 64 59 20 81 1 63 306 67 62 68 0 27 69 70 14 64 149 69 ?71 62 72 5 73 +0 0 71
 62 20 14 59 159 74 ?62 16 57 5 18 +0 0 62 16 20 15 65 238 0 55 62 61 54 255 66
 173 0 62 73 18 0 --.01241619848709566 0 0 1 0 0 .028 .003 0 0 -1 13 20 100 0 0
 0 0 0 0 9 16 14 16 162 75 ?59 0 76 5 6 +0 0 59 0 20 81 1 75 309 67 16 77 0 74 7
8 79 15 76 240 0 21 16 0 17 21 0 76 21 21 0 80 10 0 0 +17 80 0 60 80 80 0 21 10
 0 0 -15 60 158 0 80 59 0 80 255 1 67 81 82 9000 1 1 1 1 1 1 1 1 0 FFFFTFTFFFFFF
F1 81 1 77 270 83 16 0 75 0 84 85 81 1 74 308 67 59 84 0 69 75 86 81 1 78 310 67
 71 87 0 75 88 89 82 255 1 79 -100990872 14 71 144 78 ?90 64 91 5 92 +0 0 90 64
 20 81 1 87 274 83 71 0 78 93 94 95 81 1 88 311 67 90 94 0 78 96 97 82 1 89 -103
088024 14 90 139 88 ?98 71 99 5 100 +0 0 98 71 20 81 1 94 275 83 90 0 88 87 101
 102 81 1 96 312 67 98 101 0 88 103 104 82 1 97 -103677848 14 98 134 96 ?105 90
 106 5 107 +0 0 105 90 20 81 1 101 276 83 98 0 96 94 108 109 81 1 103 313 67 105
 108 0 96 110 111 82 1 104 -104267672 14 105 129 103 ?112 98 113 5 114 +0 0 112
 98 20 81 1 108 277 83 105 0 103 101 115 116 81 1 110 314 67 112 115 0 103 117 1
18 82 1 111 -104857496 14 112 124 110 ?28 105 119 5 120 +0 0 28 105 20 81 1 115
 278 83 112 0 110 108 121 122 81 1 117 315 67 28 121 0 110 0 123 82 1 118 -10544
7320 14 28 119 117 ?25 112 33 5 124 +0 0 25 112 20 81 1 121 279 83 28 0 117 115
 125 126 82 1 123 -106037144 80 1 83 0 127 8001 0 0 0 0 3 5 0 0 0 FFFFTFTFFFFFFF
2 81 1 125 280 83 25 0 27 121 0 128 83 255 3 126 .792156862745098 .8196078431372
55 .933333333333333 81 1 27 305 67 25 125 0 0 63 129 83 3 128 .792156862745098 .
819607843137255 .933333333333333 82 1 129 -106626968 79 255 15 127 SDL/TYSA_COLO
UR15 33 231 0 31 28 130 52 255 124 166 0 28 29 120 0 +-.224749744387587 0 0 1 0
 0 .0387346881708919 .930085115937174 .3673440854459655 0 0 -1 52 29 165 0 25 0
 124 0 --.228199574927622 0 0 -1 0 0 .03 .991444861373811 .1305261922200482 0 0
 1 54 120 167 0 112 124 114 0 +-.2228895741557125 0 0 1 0 0 .038 .002 0 0 -1 51
 255 114 168 0 105 120 107 0 +0 0 0 1 0 0 .04 0 0 -1 54 107 169 0 98 114 100 0 -
-.219516640373361 0 0 1 0 0 .045 .005 0 0 -1 53 255 100 170 0 90 107 92 0 +-.135
 0 0 .09075 1 0 0 0 0 -1 54 92 171 0 71 100 73 0 --.03251311059457415 0 0 1 0 0
 .047 .022 0 0 -1 51 73 172 0 64 92 66 0 +0 0 0 1 0 0 .025 0 0 -1 15 130 118 0 1
31 28 0 17 131 0 130 131 131 0 36 34 0 0 -17 36 0 119 36 36 0 131 34 0 0 +15 119
 232 0 36 112 132 15 132 123 0 133 112 0 17 133 0 132 133 133 0 41 37 0 0 -17 41
 0 113 41 41 0 133 37 0 0 +15 113 233 0 41 105 134 15 134 128 0 135 105 0 17 135
 0 134 135 135 0 44 42 0 0 -17 44 0 106 44 44 0 135 42 0 0 +15 106 234 0 44 98 1
36 15 136 133 0 137 98 0 17 137 0 136 137 137 0 47 45 0 0 -17 47 0 99 47 47 0 13
7 45 0 0 +15 99 235 0 47 90 138 15 138 138 0 139 90 0 17 139 0 138 139 139 0 50
 48 0 0 -17 50 0 91 50 50 0 139 48 0 0 +15 91 236 0 50 71 140 15 140 143 0 141 7
1 0 17 141 0 140 141 141 0 53 51 0 0 -17 53 0 72 53 53 0 141 51 0 0 +15 72 237 0
 53 64 142 15 142 148 0 143 64 0 17 143 0 142 143 143 0 55 54 0 0 -17 55 0 65 55
 55 0 143 54 0 0 +83 3 122 .792156862745098 .819607843137255 .933333333333333 83
 3 116 .792156862745098 .819607843137255 .933333333333333 83 3 109 .792156862745
098 .819607843137255 .933333333333333 83 3 102 .792156862745098 .819607843137255
 .933333333333333 81 1 93 273 83 64 0 69 68 87 144 83 3 95 .792156862745098 .819
607843137255 .933333333333333 81 1 69 307 67 64 93 0 63 74 145 81 1 68 272 83 62
 0 63 84 93 146 83 3 144 .792156862745098 .819607843137255 .933333333333333 81 1
 84 271 83 59 0 74 77 68 147 83 3 146 .792156862745098 .819607843137255 .9333333
33333333 83 3 147 .792156862745098 .819607843137255 .933333333333333 82 1 145 -1
02498200 82 1 86 -101318552 83 3 85 .792156862745098 .819607843137255 .933333333
333333 79 14 82 SWEntUnchanged54 18 174 0 59 66 6 0 +-.005 0 0 1 0 0 .025 .005 0
 0 -1 82 1 70 -101908376 19 17 96 0 1 0 9 5 S0 74 4 CI16 index_map_offset0 0 1 d
CCZ20 15 7 0 0 148 149 117 150 13 125 2 0 0 0 0 0 0 0 0 0 0 0 0 0 81 2 148 252 1
51 1 0 149 0 0 0 152 81 2 149 256 153 1 148 150 0 0 0 154 81 1 150 268 155 1 149
 13 0 0 156 81 2 13 269 157 1 150 2 0 0 0 0 80 2 157 158 159 9000 0 0 0 0 3 5 0
 0 0 FFTFFFFFFFFFFF9 1 79 16 159 BODY_RECIPE_200180 1 155 160 161 9000 1 1 1 1 1
 1 1 1 0 FFTFFFFFFFFFFF1 82 1 156 1177899 79 10 161 BODY_MATCH80 2 153 162 163 9
000 0 0 0 0 3 5 0 0 0 FFTFFFFFFFFFFF9 1 82 1 154 72 79 30 163 LAST_BODY_MODIFYIN
G_FEATURE_ID80 2 151 164 165 9000 0 0 0 0 3 5 0 0 0 FFTFFFFFFFFFFF9 1 82 1 152 1
03 79 19 165 ENT_TIME_STAMP_200180 2 12 166 167 9000 0 0 0 0 3 5 0 0 0 FFTFFFFFF
FFFFF9 1 82 1 14 101 79 12 167 ATOM_ID_20011 0 
